<?xml version="1.0" encoding="iso-8859-1"?>
<!-- Generator: Adobe Illustrator 18.1.1, SVG Export Plug-In . SVG Version: 6.00 Build 0)  -->
<svg version="1.1" baseProfile="basic" id="Layer_1"
	 xmlns="http://www.w3.org/2000/svg" xmlns:xlink="http://www.w3.org/1999/xlink" x="0px" y="0px" viewBox="0 0 300 300"
	 xml:space="preserve">
<g id="Occasions">
	<path style="stroke:#FFFFFF;stroke-width:7.0556;stroke-miterlimit:10;" d="M296.464,256.551c0,17.378-18.272,31.189-39.785,31.189
		H40.95c-21.514,0-38.123-13.811-38.123-31.189V82.293c0-17.378,16.609-32.372,38.123-32.372h215.729
		c21.514,0,39.785,14.994,39.785,32.372V256.551z"/>
	<g>
		<path style="fill:#FFFFFF;stroke:#000000;stroke-width:2.3519;" d="M136.756,197.601c0.289,2.802-1.493,4.781-5.347,5.94
			c-1.253-0.193-3.083-0.145-5.49,0.145c-1.734,0-7.178,1.4-16.331,4.2c-10.309,2.897-17.969,5.6-22.977,8.113
			c-1.349,0.674-2.578,1.568-3.684,2.679c-1.108,1.109-1.805,1.666-2.094,1.666c-1.445,0.193-5.636-2.317-12.574-7.532
			c-1.929-1.159-3.854-2.413-5.781-3.767c-1.927-1.351-2.939-2.944-3.035-4.779c0-0.675,4.191-7.001,12.574-18.976
			c10.307-14.678,18.302-26.943,23.989-36.793c8.766-15.547,13.487-27.859,14.161-36.938c-7.513,3.092-15.028,10.045-22.544,20.858
			c-0.578,0.485-0.938,1.376-1.083,2.68s-0.411,2.198-0.796,2.68c-0.963,1.257-2.361,1.883-4.191,1.883
			c-3.177,0-7.034-1.544-11.56-4.636c-1.929-1.061-3.854-2.122-5.781-3.187c-2.312-1.253-3.517-2.365-3.613-3.331
			c-0.193-2.22,2.216-6.519,7.226-12.892c5.396-6.758,11.367-12.506,17.919-17.238c7.804-5.794,14.741-8.691,20.809-8.691
			c2.312,0,4.503,0.748,6.577,2.245c2.069,1.498,4.067,3.019,5.997,4.562c7.804,5.41,12.764,10.527,14.884,15.355
			c0.385,0.967,0.578,2.222,0.578,3.767c0,6.76-3.565,17.769-10.693,33.026c-6.744,14.39-13.971,26.896-21.676,37.517
			c2.985-0.965,7.128-2.412,12.427-4.346c0.578-0.29,1.59-0.963,3.035-2.027c0.961-0.675,1.879-0.965,2.746-0.869
			c2.312,0.29,5.563,3.019,9.754,8.184C134.372,192.267,136.563,195.769,136.756,197.601z"/>
		<path style="fill:#FFFFFF;stroke:#000000;stroke-width:2.3519;" d="M233.433,108.806c0.19,1.065-0.388,2.367-1.734,3.911
			c-1.351,1.546-2.796,2.463-4.336,2.752c-1.156,0.194-2.89-0.145-5.203-1.014c-2.794-0.965-4.866-1.544-6.212-1.738
			c-3.469-0.385-7.964,0.145-13.068,1.594c-6.359,1.738-12.125,4.54-16.823,8.401v15.789c4.698-1.834,8.152-2.752,11.909-2.752
			c5.492,0,12.337,3.092,20.334,9.27c7.997,6.182,12.047,11.686,12.047,16.514c0,14.97-3.757,28.803-11.318,41.501
			c-7.563,12.697-15.956,19.048-25.206,19.048c-4.721,0-12.037-3.477-21.959-10.429c-9.924-6.952-15.076-12.457-15.459-16.514
			c-0.195-2.027,0.385-3.983,1.736-5.866c1.347-1.883,2.985-2.872,4.915-2.97c2.985-0.192,7.128,2.126,12.427,6.954
			c5.781,5.504,8.862,8.306,9.25,8.401c5.008-2.8,10.115-8.981,15.317-18.542c5.008-9.173,7.515-16.368,7.515-21.583
			c0-3.187-1.542-4.781-4.625-4.781c-2.89,0-6.841,2.079-11.849,6.229c-5.012,4.153-7.66,6.228-7.949,6.228
			c-1.929,0.098-5.542-1.108-10.839-3.621c-5.299-2.51-8.958-4.925-10.982-7.243c-0.677-0.869-1.012-1.833-1.012-2.896
			c0-0.483-0.289-1.376-0.048-2.68s-0.046-2.341-0.046-3.115v-43.6c0-1.449,1.298-2.897,3.081-4.346
			c1.782-1.449,3.937-2.365,6.056-2.752c0.578-0.095,1.451,0.025,2.414,0.362c0.964,0.339,1.737,0.507,2.219,0.507
			s1.037-0.145,1.615-0.435c7.031-3.187,15.089-5.697,24.146-7.532c6.648-1.352,11.135-1.979,13.447-1.883
			c1.058-0.193,2.072-0.385,3.036-0.579c1.06-0.095,2.025,0.145,2.892,0.724c2.601,1.933,5.445,4.877,8.528,8.836
			C231.024,103.207,232.949,106.488,233.433,108.806z"/>
	</g>
	<path style="fill:#FFFFFF;" d="M64.095,84.063H42.571c-5.733,0-10.38-4.647-10.38-10.38v-54.59c0-5.733,4.647-10.38,10.38-10.38
		h21.524c5.733,0,10.38,4.647,10.38,10.38v54.59C74.475,79.416,69.828,84.063,64.095,84.063z"/>
	<path style="fill:#FFFFFF;" d="M254.372,84.063h-21.524c-5.733,0-10.38-4.647-10.38-10.38v-54.59c0-5.733,4.647-10.38,10.38-10.38
		h21.524c5.733,0,10.38,4.647,10.38,10.38v54.59C264.752,79.416,260.104,84.063,254.372,84.063z"/>
	<ellipse cx="52.688" cy="65.452" rx="11.792" ry="11.82"/>
	<ellipse cx="244.185" cy="65.452" rx="11.792" ry="11.82"/>
	<path style="fill:#FFFFFF;stroke:#FFFFFF;stroke-width:7.0556;stroke-miterlimit:10;" d="M274.122,287.741H25.17
		c-12.339,0-22.342-10.003-22.342-22.342v-0.054c0-12.339,10.003-22.342,22.342-22.342h248.952
		c12.339,0,22.342,10.003,22.342,22.342v0.054C296.464,277.738,286.461,287.741,274.122,287.741z"/>
</g>
</svg>
