<?xml version="1.0" encoding="iso-8859-1"?>
<!-- Generator: Adobe Illustrator 18.1.1, SVG Export Plug-In . SVG Version: 6.00 Build 0)  -->
<svg version="1.1" baseProfile="basic" id="Layer_1"
	 xmlns="http://www.w3.org/2000/svg" xmlns:xlink="http://www.w3.org/1999/xlink" x="0px" y="0px" viewBox="0 0 300 300"
	 xml:space="preserve">
<g id="Gift_Ideas">
	<path style="stroke:#FFFFFF;stroke-width:8.9457;stroke-miterlimit:10;" d="M288.061,262.4c0,18.188-16.604,32.932-37.086,32.932
		H45.593c-20.482,0-37.086-14.744-37.086-32.932V80.02c0-18.188,16.604-32.932,37.086-32.932h205.382
		c20.482,0,37.086,14.744,37.086,32.932V262.4z"/>
	<rect x="73" y="49" style="fill:#FFFFFF;" width="52" height="246"/>
	<rect x="12" y="98" style="fill:#FFFFFF;" width="280" height="36"/>
	<path style="fill:#FFFFFF;" d="M76.318,77.197L16.893,49.12c-5.413-2.558-7-9.644-3.227-14.407L34.638,8.241
		c3.661-4.621,10.522-4.696,14.219-0.155l42.48,52.172c3.638,4.468,2.431,11.232-2.525,14.158l-4.028,2.378
		C82.186,78.327,79.027,78.478,76.318,77.197z"/>
	<path style="fill:#FFFFFF;" d="M120.926,79.009l60.505-23.321c6.737-2.597,8.852-13.816,3.963-21.021l-16.09-23.709
		c-3.536-5.21-9.364-6.023-13.301-1.854l-44.414,47.03c-5.433,5.753-4.315,17.395,2.098,21.848l0,0
		C115.954,79.558,118.548,79.926,120.926,79.009z"/>
</g>
</svg>
