<?xml version="1.0" encoding="iso-8859-1"?>
<!-- Generator: Adobe Illustrator 18.1.1, SVG Export Plug-In . SVG Version: 6.00 Build 0)  -->
<svg version="1.1" baseProfile="basic" id="Layer_1"
	 xmlns="http://www.w3.org/2000/svg" xmlns:xlink="http://www.w3.org/1999/xlink" x="0px" y="0px" viewBox="0 0 300 300"
	 xml:space="preserve">
<g id="Add_New">
	
		<path style="fill:#FFFFFF;stroke:#000000;stroke-width:17.5882;stroke-linecap:round;stroke-linejoin:round;stroke-miterlimit:10;" d="
		M258.357,289.089H41.572c-16.583,0-30.151-13.568-30.151-30.151V42.152c0-16.583,13.568-30.151,30.151-30.151h216.786
		c16.583,0,30.151,13.568,30.151,30.151v216.786C288.508,275.521,274.94,289.089,258.357,289.089z"/>
	<g>
		<path style="stroke:#FFFFFF;stroke-width:10.0504;stroke-linecap:round;stroke-linejoin:round;stroke-miterlimit:10;" d="
			M190.186,39.569l5.025,66.2l61.955,5.025c8.016,0,14.514,6.498,14.514,14.514v49.532c0,8.016-6.498,14.514-14.514,14.514
			l-61.955,5.025l-5.025,67.141c0,8.016-6.498,14.514-14.514,14.514h-51.417c-8.016,0-14.514-6.498-14.514-14.514l-5.025-67.141
			l-61.953-5.025c-8.016,0-14.514-6.498-14.514-14.514v-49.532c0-8.016,6.498-14.514,14.514-14.514l61.953-5.025l5.025-66.2
			c0-8.016,6.498-14.514,14.514-14.514h51.417C183.688,25.055,190.186,31.553,190.186,39.569z"/>
	</g>
</g>
</svg>
